<svg width="67" height="57" viewBox="0 0 67 57" fill="none" xmlns="http://www.w3.org/2000/svg">
<ellipse cx="33.5" cy="28.5" rx="33.5" ry="28.5" fill="#17282F"/>
<path d="M41.478 29.54C41.518 29.24 41.538 28.93 41.538 28.6C41.538 28.28 41.518 27.96 41.468 27.66L43.498 26.08C43.678 25.94 43.728 25.67 43.618 25.47L41.698 22.15C41.578 21.93 41.328 21.86 41.108 21.93L38.718 22.89C38.218 22.51 37.688 22.19 37.098 21.95L36.738 19.41C36.698 19.17 36.498 19 36.258 19H32.418C32.178 19 31.988 19.17 31.948 19.41L31.588 21.95C30.998 22.19 30.458 22.52 29.968 22.89L27.578 21.93C27.358 21.85 27.108 21.93 26.988 22.15L25.078 25.47C24.958 25.68 24.998 25.94 25.198 26.08L27.228 27.66C27.178 27.96 27.138 28.29 27.138 28.6C27.138 28.91 27.158 29.24 27.208 29.54L25.178 31.12C24.998 31.26 24.948 31.53 25.058 31.73L26.978 35.05C27.098 35.27 27.348 35.34 27.568 35.27L29.958 34.31C30.458 34.69 30.988 35.01 31.578 35.25L31.938 37.79C31.988 38.03 32.178 38.2 32.418 38.2H36.258C36.498 38.2 36.698 38.03 36.728 37.79L37.088 35.25C37.678 35.01 38.218 34.69 38.708 34.31L41.098 35.27C41.318 35.35 41.568 35.27 41.688 35.05L43.608 31.73C43.728 31.51 43.678 31.26 43.488 31.12L41.478 29.54ZM34.338 32.2C32.358 32.2 30.738 30.58 30.738 28.6C30.738 26.62 32.358 25 34.338 25C36.318 25 37.938 26.62 37.938 28.6C37.938 30.58 36.318 32.2 34.338 32.2Z" fill="white"/>
</svg>
