<svg xmlns="http://www.w3.org/2000/svg" xmlns:xlink="http://www.w3.org/1999/xlink" width="810" viewBox="0 0 810 810" height="810" version="1.0"><defs><clipPath id="a"><path d="M 28.582031 28.582031 L 781.582031 28.582031 L 781.582031 781.582031 L 28.582031 781.582031 Z M 28.582031 28.582031"/></clipPath><clipPath id="b"><path d="M 781.582031 405.082031 C 781.582031 411.242188 781.429688 417.398438 781.125 423.554688 C 780.824219 429.707031 780.371094 435.851562 779.765625 441.984375 C 779.164062 448.117188 778.410156 454.230469 777.503906 460.324219 C 776.601562 466.417969 775.546875 472.488281 774.347656 478.53125 C 773.144531 484.574219 771.792969 490.585938 770.296875 496.5625 C 768.800781 502.539062 767.15625 508.476562 765.367188 514.371094 C 763.578125 520.269531 761.648438 526.117188 759.570312 531.917969 C 757.496094 537.722656 755.277344 543.46875 752.921875 549.160156 C 750.5625 554.851562 748.066406 560.484375 745.433594 566.054688 C 742.796875 571.625 740.027344 577.128906 737.125 582.5625 C 734.21875 587.996094 731.183594 593.355469 728.015625 598.640625 C 724.847656 603.925781 721.550781 609.128906 718.128906 614.253906 C 714.707031 619.375 711.160156 624.414062 707.488281 629.359375 C 703.816406 634.308594 700.027344 639.167969 696.117188 643.929688 C 692.210938 648.691406 688.1875 653.355469 684.046875 657.921875 C 679.910156 662.488281 675.664062 666.949219 671.304688 671.304688 C 666.949219 675.664062 662.488281 679.910156 657.921875 684.046875 C 653.355469 688.1875 648.691406 692.210938 643.929688 696.117188 C 639.167969 700.027344 634.308594 703.816406 629.359375 707.488281 C 624.414062 711.160156 619.375 714.707031 614.253906 718.128906 C 609.128906 721.550781 603.925781 724.847656 598.640625 728.015625 C 593.355469 731.183594 587.996094 734.21875 582.5625 737.125 C 577.128906 740.027344 571.625 742.796875 566.054688 745.433594 C 560.484375 748.066406 554.851562 750.5625 549.160156 752.921875 C 543.46875 755.277344 537.722656 757.496094 531.917969 759.570312 C 526.117188 761.648438 520.269531 763.578125 514.371094 765.367188 C 508.476562 767.15625 502.539062 768.800781 496.5625 770.296875 C 490.585938 771.792969 484.574219 773.144531 478.53125 774.347656 C 472.488281 775.546875 466.417969 776.601562 460.324219 777.503906 C 454.230469 778.410156 448.117188 779.164062 441.984375 779.765625 C 435.851562 780.371094 429.707031 780.824219 423.554688 781.128906 C 417.398438 781.429688 411.242188 781.582031 405.082031 781.582031 C 398.917969 781.582031 392.761719 781.429688 386.605469 781.128906 C 380.453125 780.824219 374.308594 780.371094 368.175781 779.765625 C 362.046875 779.164062 355.929688 778.410156 349.835938 777.503906 C 343.742188 776.601562 337.671875 775.546875 331.628906 774.347656 C 325.585938 773.144531 319.574219 771.792969 313.597656 770.296875 C 307.621094 768.800781 301.683594 767.15625 295.789062 765.367188 C 289.890625 763.578125 284.042969 761.648438 278.242188 759.570312 C 272.441406 757.496094 266.691406 755.277344 261 752.921875 C 255.308594 750.5625 249.675781 748.066406 244.105469 745.433594 C 238.535156 742.796875 233.035156 740.027344 227.601562 737.125 C 222.164062 734.21875 216.804688 731.183594 211.519531 728.015625 C 206.234375 724.847656 201.03125 721.550781 195.910156 718.128906 C 190.785156 714.707031 185.75 711.160156 180.800781 707.488281 C 175.851562 703.816406 170.996094 700.027344 166.230469 696.117188 C 161.46875 692.210938 156.804688 688.1875 152.238281 684.046875 C 147.671875 679.910156 143.210938 675.664062 138.855469 671.304688 C 134.496094 666.949219 130.25 662.488281 126.113281 657.921875 C 121.972656 653.355469 117.949219 648.691406 114.042969 643.929688 C 110.132812 639.167969 106.34375 634.308594 102.671875 629.359375 C 99.003906 624.414062 95.457031 619.375 92.03125 614.253906 C 88.609375 609.128906 85.3125 603.925781 82.144531 598.640625 C 78.976562 593.355469 75.941406 587.996094 73.039062 582.5625 C 70.132812 577.128906 67.363281 571.625 64.730469 566.054688 C 62.09375 560.484375 59.597656 554.851562 57.238281 549.160156 C 54.882812 543.46875 52.664062 537.722656 50.589844 531.917969 C 48.511719 526.117188 46.582031 520.269531 44.792969 514.371094 C 43.003906 508.476562 41.359375 502.539062 39.863281 496.5625 C 38.367188 490.585938 37.015625 484.574219 35.816406 478.53125 C 34.613281 472.488281 33.558594 466.417969 32.65625 460.324219 C 31.75 454.230469 30.996094 448.117188 30.394531 441.984375 C 29.789062 435.851562 29.335938 429.707031 29.035156 423.554688 C 28.730469 417.398438 28.582031 411.242188 28.582031 405.082031 C 28.582031 398.917969 28.730469 392.761719 29.035156 386.605469 C 29.335938 380.453125 29.789062 374.308594 30.394531 368.175781 C 30.996094 362.046875 31.75 355.929688 32.65625 349.835938 C 33.558594 343.742188 34.613281 337.671875 35.816406 331.628906 C 37.015625 325.585938 38.367188 319.574219 39.863281 313.597656 C 41.359375 307.621094 43.003906 301.683594 44.792969 295.789062 C 46.582031 289.890625 48.511719 284.042969 50.589844 278.242188 C 52.664062 272.441406 54.882812 266.691406 57.238281 261 C 59.597656 255.308594 62.09375 249.675781 64.730469 244.105469 C 67.363281 238.535156 70.132812 233.035156 73.039062 227.601562 C 75.941406 222.164062 78.976562 216.804688 82.144531 211.519531 C 85.3125 206.234375 88.609375 201.03125 92.03125 195.910156 C 95.457031 190.785156 99.003906 185.75 102.671875 180.800781 C 106.34375 175.851562 110.132812 170.996094 114.042969 166.230469 C 117.949219 161.46875 121.972656 156.804688 126.113281 152.238281 C 130.25 147.671875 134.496094 143.210938 138.855469 138.855469 C 143.210938 134.496094 147.671875 130.25 152.238281 126.113281 C 156.804688 121.972656 161.46875 117.949219 166.230469 114.042969 C 170.996094 110.132812 175.851562 106.34375 180.800781 102.671875 C 185.75 99.003906 190.785156 95.457031 195.910156 92.03125 C 201.03125 88.609375 206.234375 85.3125 211.519531 82.144531 C 216.804688 78.976562 222.164062 75.941406 227.601562 73.039062 C 233.035156 70.132812 238.535156 67.363281 244.105469 64.730469 C 249.675781 62.09375 255.308594 59.597656 261 57.238281 C 266.691406 54.882812 272.441406 52.664062 278.242188 50.589844 C 284.042969 48.511719 289.890625 46.582031 295.789062 44.792969 C 301.683594 43.003906 307.621094 41.359375 313.597656 39.863281 C 319.574219 38.367188 325.585938 37.015625 331.628906 35.816406 C 337.671875 34.613281 343.742188 33.558594 349.835938 32.65625 C 355.929688 31.75 362.046875 30.996094 368.175781 30.394531 C 374.308594 29.789062 380.453125 29.335938 386.605469 29.035156 C 392.761719 28.730469 398.917969 28.582031 405.082031 28.582031 C 411.242188 28.582031 417.398438 28.730469 423.554688 29.035156 C 429.707031 29.335938 435.851562 29.789062 441.984375 30.394531 C 448.117188 30.996094 454.230469 31.75 460.324219 32.65625 C 466.417969 33.558594 472.488281 34.613281 478.53125 35.816406 C 484.574219 37.015625 490.585938 38.367188 496.5625 39.863281 C 502.539062 41.359375 508.476562 43.003906 514.371094 44.792969 C 520.269531 46.582031 526.117188 48.511719 531.917969 50.589844 C 537.722656 52.664062 543.46875 54.882812 549.160156 57.238281 C 554.851562 59.597656 560.484375 62.09375 566.054688 64.730469 C 571.625 67.363281 577.128906 70.132812 582.5625 73.039062 C 587.996094 75.941406 593.355469 78.976562 598.640625 82.144531 C 603.925781 85.3125 609.128906 88.609375 614.253906 92.03125 C 619.375 95.457031 624.414062 99.003906 629.359375 102.671875 C 634.308594 106.34375 639.167969 110.132812 643.929688 114.042969 C 648.691406 117.949219 653.355469 121.972656 657.921875 126.113281 C 662.488281 130.25 666.949219 134.496094 671.304688 138.855469 C 675.664062 143.210938 679.910156 147.671875 684.046875 152.238281 C 688.1875 156.804688 692.210938 161.46875 696.117188 166.230469 C 700.027344 170.996094 703.816406 175.851562 707.488281 180.800781 C 711.160156 185.75 714.707031 190.785156 718.128906 195.910156 C 721.550781 201.03125 724.847656 206.234375 728.015625 211.519531 C 731.183594 216.804688 734.21875 222.164062 737.125 227.601562 C 740.027344 233.035156 742.796875 238.535156 745.433594 244.105469 C 748.066406 249.675781 750.5625 255.308594 752.921875 261 C 755.277344 266.691406 757.496094 272.441406 759.570312 278.242188 C 761.648438 284.042969 763.578125 289.890625 765.367188 295.789062 C 767.15625 301.683594 768.800781 307.621094 770.296875 313.597656 C 771.792969 319.574219 773.144531 325.585938 774.347656 331.628906 C 775.546875 337.671875 776.601562 343.742188 777.503906 349.835938 C 778.410156 355.929688 779.164062 362.046875 779.765625 368.175781 C 780.371094 374.308594 780.824219 380.453125 781.125 386.605469 C 781.429688 392.761719 781.582031 398.917969 781.582031 405.082031 Z M 781.582031 405.082031"/></clipPath><linearGradient x1="0" gradientTransform="matrix(753 0 0 753 28.58 28.58)" xmlns:xlink="http://www.w3.org/1999/xlink" y1="0" x2="1.005" gradientUnits="userSpaceOnUse" y2=".995" xlink:type="simple" xlink:actuate="onLoad" id="c" xlink:show="other"><stop stop-color="#45B7D7" offset="0"/><stop stop-color="#45B7D7" offset=".008"/><stop stop-color="#45B6D6" offset=".016"/><stop stop-color="#45B5D6" offset=".023"/><stop stop-color="#45B4D5" offset=".031"/><stop stop-color="#45B3D5" offset=".039"/><stop stop-color="#45B3D4" offset=".047"/><stop stop-color="#44B2D4" offset=".055"/><stop stop-color="#44B1D3" offset=".063"/><stop stop-color="#44B0D3" offset=".07"/><stop stop-color="#44AFD2" offset=".078"/><stop stop-color="#44AED2" offset=".086"/><stop stop-color="#44AED2" offset=".094"/><stop stop-color="#44ADD1" offset=".102"/><stop stop-color="#44ACD1" offset=".109"/><stop stop-color="#44ABD0" offset=".117"/><stop stop-color="#44AAD0" offset=".125"/><stop stop-color="#43AACF" offset=".133"/><stop stop-color="#43A9CF" offset=".141"/><stop stop-color="#43A8CE" offset=".148"/><stop stop-color="#43A7CE" offset=".156"/><stop stop-color="#43A6CD" offset=".164"/><stop stop-color="#43A5CD" offset=".172"/><stop stop-color="#43A5CC" offset=".18"/><stop stop-color="#43A4CC" offset=".188"/><stop stop-color="#43A3CB" offset=".195"/><stop stop-color="#43A2CB" offset=".203"/><stop stop-color="#42A1CA" offset=".211"/><stop stop-color="#42A1CA" offset=".219"/><stop stop-color="#42A0CA" offset=".227"/><stop stop-color="#429FC9" offset=".234"/><stop stop-color="#429EC9" offset=".242"/><stop stop-color="#429DC8" offset=".25"/><stop stop-color="#429CC8" offset=".258"/><stop stop-color="#429CC7" offset=".266"/><stop stop-color="#429BC7" offset=".273"/><stop stop-color="#429AC6" offset=".281"/><stop stop-color="#4199C6" offset=".289"/><stop stop-color="#4198C5" offset=".297"/><stop stop-color="#4198C5" offset=".305"/><stop stop-color="#4197C4" offset=".313"/><stop stop-color="#4196C4" offset=".32"/><stop stop-color="#4195C3" offset=".328"/><stop stop-color="#4194C3" offset=".336"/><stop stop-color="#4193C2" offset=".344"/><stop stop-color="#4193C2" offset=".352"/><stop stop-color="#4192C2" offset=".359"/><stop stop-color="#4091C1" offset=".367"/><stop stop-color="#4090C1" offset=".375"/><stop stop-color="#408FC0" offset=".383"/><stop stop-color="#408FC0" offset=".391"/><stop stop-color="#408EBF" offset=".398"/><stop stop-color="#408DBF" offset=".406"/><stop stop-color="#408CBE" offset=".414"/><stop stop-color="#408BBE" offset=".422"/><stop stop-color="#408ABD" offset=".43"/><stop stop-color="#408ABD" offset=".438"/><stop stop-color="#3F89BC" offset=".445"/><stop stop-color="#3F88BC" offset=".453"/><stop stop-color="#3F87BB" offset=".461"/><stop stop-color="#3F86BB" offset=".469"/><stop stop-color="#3F86BA" offset=".477"/><stop stop-color="#3F85BA" offset=".484"/><stop stop-color="#3F84BA" offset=".492"/><stop stop-color="#3F83B9" offset=".498"/><stop stop-color="#3F83B9" offset=".5"/><stop stop-color="#3F82B9" offset=".502"/><stop stop-color="#3F82B8" offset=".508"/><stop stop-color="#3F81B8" offset=".516"/><stop stop-color="#3E81B8" offset=".523"/><stop stop-color="#3E80B7" offset=".531"/><stop stop-color="#3E7FB7" offset=".539"/><stop stop-color="#3E7EB6" offset=".547"/><stop stop-color="#3E7DB6" offset=".555"/><stop stop-color="#3E7DB5" offset=".563"/><stop stop-color="#3E7CB5" offset=".57"/><stop stop-color="#3E7BB4" offset=".578"/><stop stop-color="#3E7AB4" offset=".586"/><stop stop-color="#3E79B3" offset=".594"/><stop stop-color="#3D78B3" offset=".602"/><stop stop-color="#3D78B2" offset=".609"/><stop stop-color="#3D77B2" offset=".617"/><stop stop-color="#3D76B2" offset=".625"/><stop stop-color="#3D75B1" offset=".633"/><stop stop-color="#3D74B1" offset=".641"/><stop stop-color="#3D74B0" offset=".648"/><stop stop-color="#3D73B0" offset=".656"/><stop stop-color="#3D72AF" offset=".664"/><stop stop-color="#3D71AF" offset=".672"/><stop stop-color="#3C70AE" offset=".68"/><stop stop-color="#3C6FAE" offset=".688"/><stop stop-color="#3C6FAD" offset=".695"/><stop stop-color="#3C6EAD" offset=".703"/><stop stop-color="#3C6DAC" offset=".711"/><stop stop-color="#3C6CAC" offset=".719"/><stop stop-color="#3C6BAB" offset=".727"/><stop stop-color="#3C6BAB" offset=".734"/><stop stop-color="#3C6AAA" offset=".742"/><stop stop-color="#3C69AA" offset=".75"/><stop stop-color="#3B68AA" offset=".758"/><stop stop-color="#3B67A9" offset=".766"/><stop stop-color="#3B66A9" offset=".773"/><stop stop-color="#3B66A8" offset=".781"/><stop stop-color="#3B65A8" offset=".789"/><stop stop-color="#3B64A7" offset=".797"/><stop stop-color="#3B63A7" offset=".805"/><stop stop-color="#3B62A6" offset=".813"/><stop stop-color="#3B62A6" offset=".82"/><stop stop-color="#3B61A5" offset=".828"/><stop stop-color="#3A60A5" offset=".836"/><stop stop-color="#3A5FA4" offset=".844"/><stop stop-color="#3A5EA4" offset=".852"/><stop stop-color="#3A5DA3" offset=".859"/><stop stop-color="#3A5DA3" offset=".867"/><stop stop-color="#3A5CA2" offset=".875"/><stop stop-color="#3A5BA2" offset=".883"/><stop stop-color="#3A5AA2" offset=".891"/><stop stop-color="#3A59A1" offset=".898"/><stop stop-color="#3A58A1" offset=".906"/><stop stop-color="#3958A0" offset=".914"/><stop stop-color="#3957A0" offset=".922"/><stop stop-color="#39569F" offset=".93"/><stop stop-color="#39559F" offset=".938"/><stop stop-color="#39549E" offset=".945"/><stop stop-color="#39549E" offset=".953"/><stop stop-color="#39539D" offset=".961"/><stop stop-color="#39529D" offset=".969"/><stop stop-color="#39519C" offset=".977"/><stop stop-color="#39509C" offset=".984"/><stop stop-color="#384F9B" offset=".992"/><stop stop-color="#384F9B" offset="1"/></linearGradient></defs><g clip-path="url(#a)"><g clip-path="url(#b)"><path fill="url(#c)" d="M 28.582031 28.582031 L 28.582031 781.582031 L 781.582031 781.582031 L 781.582031 28.582031 Z M 28.582031 28.582031"/></g></g><path transform="matrix(.55176 0 0 .55176 156.076 -59.765)" fill="none" d="M 608.763213 848.038204 C 608.763213 949.850966 555.609036 1020.187506 450.617502 1020.187506 C 439.778525 1020.187506 428.932467 1019.132635 419.148361 1018.077764 L 419.148361 1197.90143 C 425.760774 1198.956301 433.166111 1198.956301 439.778525 1198.956301 L 554.547086 1328.01164 L 839.362286 1328.01164 L 669.315647 1155.586231 C 787.524928 1097.143539 853.641984 982.374978 853.641984 813.39029 C 853.641984 558.727413 705.018432 427.824279 450.617502 427.824279 C 439.778525 427.824279 428.932467 427.824279 419.148361 428.88623 L 419.148361 608.709896 C 428.932467 607.655025 439.778525 606.593074 450.617502 606.593074 C 555.609036 606.593074 608.763213 676.936694 608.763213 778.749456 Z M 293.540822 448.454443 C 136.457062 493.941335 48.654972 617.439132 48.654972 813.39029 C 48.654972 1010.403399 136.457062 1132.846325 293.540822 1178.333217 Z M 293.540822 448.454443" stroke="#FFF" stroke-width="40.62"/></svg>