<?xml version="1.0" standalone="no"?>
<!DOCTYPE svg PUBLIC "-//W3C//DTD SVG 20010904//EN"
 "http://www.w3.org/TR/2001/REC-SVG-20010904/DTD/svg10.dtd">
<svg version="1.0" xmlns="http://www.w3.org/2000/svg"
 width="600.000000pt" height="479.000000pt" viewBox="0 0 600.000000 479.000000"
 preserveAspectRatio="xMidYMid meet">

<g transform="translate(0.000000,479.000000) scale(0.100000,-0.100000)"
fill="currentColor" stroke="none">
<path d="M1984 3215 c-7 -18 -3 -26 241 -420 105 -170 215 -349 244 -397 77
-130 121 -180 206 -237 128 -86 261 -114 400 -85 135 27 135 27 135 12 0 -15
-172 -304 -194 -327 -8 -7 -19 -11 -24 -7 -6 3 -38 51 -72 107 -38 62 -74 108
-93 120 -39 23 -97 26 -97 4 0 -12 140 -250 230 -392 29 -46 54 -40 91 20 265
429 465 758 475 783 7 17 10 34 7 38 -4 3 -27 6 -53 6 -46 0 -49 -2 -141 -96
-120 -122 -196 -163 -316 -171 -192 -13 -351 74 -430 235 -36 71 -38 82 -38
166 0 81 4 98 33 160 17 38 32 76 32 85 0 24 -39 63 -58 59 -20 -4 -63 -78
-93 -161 -12 -32 -26 -56 -32 -54 -14 4 -278 440 -274 452 2 6 74 11 186 13
l183 2 26 -29 c15 -16 115 -173 222 -350 107 -176 200 -323 207 -325 7 -3 19
-3 26 0 7 2 59 81 116 175 93 152 102 173 93 194 -14 30 -58 43 -78 23 -8 -7
-40 -56 -72 -108 -31 -52 -64 -95 -72 -95 -17 0 -201 293 -197 315 4 27 76 44
192 45 106 0 113 -1 186 -36 64 -31 96 -56 191 -152 161 -160 228 -182 317
-102 31 28 261 386 315 490 28 54 23 55 -298 55 -244 0 -295 -2 -313 -15 -12
-8 -43 -49 -69 -90 -25 -42 -54 -79 -63 -84 -10 -6 -42 0 -91 17 -105 35 -243
36 -352 3 -90 -28 -92 -27 -139 55 -17 30 -44 67 -60 84 l-31 30 -299 0 c-256
0 -300 -2 -305 -15z m1851 -95 c8 -12 0 -27 -104 -194 -47 -76 -99 -149 -114
-162 -28 -24 -29 -24 -59 -7 -37 22 -198 195 -198 213 0 21 59 107 92 135 29
25 33 25 203 25 103 0 176 -4 180 -10z"/>
</g>
</svg>
